<?xml version="1.0" encoding="UTF-8" standalone="no"?>
<svg
   xmlns:dc="http://purl.org/dc/elements/1.1/"
   xmlns:cc="http://creativecommons.org/ns#"
   xmlns:rdf="http://www.w3.org/1999/02/22-rdf-syntax-ns#"
   xmlns:svg="http://www.w3.org/2000/svg"
   xmlns="http://www.w3.org/2000/svg"
   viewBox="0 0 232 234.66667"
   height="234.66667"
   width="232"
   xml:space="preserve"
   id="svg2"
   version="1.1">
   <filter id="grayscale">
    <feColorMatrix type="matrix" values="0.3333 0.3333 0.3333 0 0 0.3333 0.3333 0.3333 0 0 0.3333 0.3333 0.3333 0 0 0 0 0 1 0"/>
  </filter>
  <metadata
     id="metadata8"><rdf:RDF><cc:Work
         rdf:about=""><dc:format>image/svg+xml</dc:format><dc:type
           rdf:resource="http://purl.org/dc/dcmitype/StillImage" /></cc:Work></rdf:RDF></metadata><defs
     id="defs6"><clipPath
       id="clipPath18"
       clipPathUnits="userSpaceOnUse"><path
         id="path16"
         d="M 0,176 H 174 V 0 H 0 Z" /></clipPath></defs><g
     transform="matrix(1.3333333,0,0,-1.3333333,0,234.66667)"
     id="g10"><g
       id="g12"><g
         clip-path="url(#clipPath18)"
         id="g14"><g
           transform="translate(169.06,86.9229)"
           id="g20"><path
             id="path22"
             filter="url(#grayscale)"
             style="fill:#008CC9;fill-opacity:1;fill-rule:nonzero;stroke:none"
             d="m 0,0 c 0,-45.606 -36.971,-82.577 -82.577,-82.577 -45.606,0 -82.577,36.971 -82.577,82.577 0,45.606 36.971,82.577 82.577,82.577 C -36.971,82.577 0,45.606 0,0" /></g><g
           transform="translate(86.6201,4.3458)"
           id="g24"><path
             id="path26"
             filter="url(#grayscale)"
             style="fill:#00A0DC;fill-opacity:1;fill-rule:nonzero;stroke:none"
             d="m 0,0 c -45.606,0 -82.577,36.971 -82.577,82.577 0,45.606 36.971,82.577 82.577,82.577" /></g><g
           transform="translate(142.0864,81.6601)"
           id="g28"><path
             id="path30"
             filter="url(#grayscale)"
             style="fill:#ffffff;fill-opacity:1;fill-rule:nonzero;stroke:none"
             d="m 0,0 c -1.217,-3.021 -3.009,-6.286 -6.276,-8.158 -2.849,-1.632 -6.674,-1.947 -10.048,-1.706 -11.283,0.807 -21.574,8.935 -25.362,17.434 -2.285,5.124 2.998,8.742 8.378,10.346 4.521,1.348 9.414,1.566 14.172,1.745 4.81,0.18 10.12,-0.017 14.539,-1.771 3.46,-1.373 5.216,-4.401 5.692,-7.417 C 1.651,6.948 1.363,3.383 0,0 m -67.538,7.57 c -3.789,-8.499 -14.079,-16.627 -25.363,-17.434 -3.373,-0.241 -7.199,0.074 -10.047,1.706 -3.268,1.872 -5.06,5.137 -6.277,8.158 -1.362,3.383 -1.65,6.948 -1.094,10.473 0.475,3.016 2.231,6.044 5.691,7.417 4.42,1.754 9.73,1.951 14.539,1.771 4.758,-0.179 9.652,-0.397 14.172,-1.745 5.38,-1.604 10.663,-5.222 8.379,-10.346 m 78.729,8.611 c -0.015,0.819 -0.028,1.641 -0.139,2.453 -0.031,0.23 -0.35,0.516 -0.626,0.627 -0.921,0.369 -1.854,0.746 -2.831,0.984 -6.32,1.544 -12.744,2.732 -19.34,2.948 -5.712,0.188 -11.443,0.201 -17.138,-0.422 -3.08,-0.337 -6.151,-0.778 -9.195,-1.359 -1.557,-0.298 -3.133,-0.593 -4.663,-1.009 -1.519,-0.413 -1.766,-0.803 -2.995,0.357 -0.99,0.934 -2.498,0.974 -3.859,0.959 l -10.144,-0.11 c -0.952,-0.011 -1.92,-0.023 -2.831,-0.302 -1.013,-0.31 -1.577,-1.192 -2.6,-1.25 -1.167,-0.065 -2.827,0.716 -3.972,0.999 -6.75,1.673 -13.666,2.615 -20.688,2.856 -3.974,0.136 -7.977,-0.041 -11.953,-0.251 -4.541,-0.24 -9.026,-0.869 -13.422,-1.881 -1.067,-0.245 -2.193,-0.335 -3.231,-0.637 -0.897,-0.261 -1.722,-0.702 -2.545,-1.109 -0.185,-0.091 -0.322,-0.371 -0.328,-0.567 -0.067,-2.138 -0.23,-4.285 0.664,-6.358 0.146,-0.34 0.3,-0.695 0.325,-1.05 0.202,-2.773 0.359,-5.549 0.558,-8.322 0.118,-1.64 0.223,-3.283 0.449,-4.913 0.401,-2.896 0.44,-7.022 2.219,-9.59 1.663,-2.399 5.671,-3.651 8.574,-4.663 9.027,-3.145 19.911,-4.236 29.638,-4.205 3.289,0.011 5.882,1.114 8.202,3.044 1.013,0.842 1.84,1.891 2.55,3.022 1.085,1.727 1.895,3.643 2.672,5.303 1.817,3.883 3.525,7.801 5.277,11.704 0.532,1.187 1.353,2.176 2.909,2.532 1.466,0.336 2.946,0.315 4.43,-0.041 1.417,-0.341 2.34,-1.055 2.806,-2.199 0.896,-2.203 1.819,-4.398 2.692,-6.607 1.368,-3.458 2.744,-7.977 5.53,-10.874 3.6,-3.744 6.579,-5.485 12.309,-5.605 2.984,-0.062 5.971,-0.041 8.957,-0.032 0.837,0.002 1.675,0.081 2.511,0.142 1.277,0.092 2.573,0.116 3.824,0.321 1.604,0.264 3.178,0.663 4.755,1.033 3.131,0.733 6.294,1.372 9.421,2.115 2.599,0.618 4.761,2.1 6.194,4.003 0.823,1.092 1.01,2.399 1.305,3.638 0.331,1.388 0.644,2.779 0.877,4.18 0.505,3.038 0.859,6.094 1.202,9.148 0.202,1.803 0.227,3.62 0.398,5.426 0.052,0.543 0.146,1.199 0.539,1.58 0.654,0.632 0.682,1.293 0.672,2.023 -0.009,0.653 0.053,1.306 0.041,1.959" /></g></g></g></g></svg>
